<?xml version="1.0" encoding="UTF-8" standalone="no"?>
<?xml-stylesheet href="drillstyle.css" type="text/css"?>
<!-- Created with Inkscape (http://www.inkscape.org/) -->

<svg
   xmlns:svg="http://www.w3.org/2000/svg"
      xmlns:xlink="http://www.w3.org/1999/xlink"   xmlns="http://www.w3.org/2000/svg"
   version="1.1"
   width="29.7cm"
   height="20.8cm"
   id="svg2">

<svg preserveAspectRatio="xMidYMid meet" viewBox="-40.5 5913.6 1520.6 1178.82588814251" width="100%" height="100%">

  <defs
     id="defs_0" >

     <marker id = "MidMarker" viewBox = "0 0 12 12" refX = "6" refY = "6"><circle cx = "6" cy = "6" class = "midmcircles" r = "5"/></marker>
<symbol overflow="visible" id = "ShearArrow" refX = "0" refY = "0"><path style="fill:none;stroke:#000000;stroke-width:1px;" d="M 0,0 12,0 8,-3"/></symbol>
<pattern id="RigidBed" patternUnits="userSpaceOnUse" x="0" y="0" width="90" height="105">
         <g style="fill: none; stroke: black; stroke-width: 1;">
                <path d="M0 90 l15,15"/>
                <path d="M0 75 l30,30"/>
                <path d="M0 60 l45,45"/>
                <path d="M0 45 l60,60"/>              
              <path d="M0 30 l75,75"/>
                <path d="M0 15 l90,90"/>
                <path d="M0 0 l105,105"/>             
               <path d="M15 0 l90,90"/>              
              <path d="M30 0 l75,75"/>              
              <path d="M45 0 l60,60"/>              
              <path d="M60 0 l45,45"/>              
               <path d="M75 0 l30,30"/>              
              <path d="M90 0 l15,15"/>              
          </g>
      </pattern>
<g   id="GRAINLEGEND"  transform="scale(1, 1) translate(0, 0)">
<text  class="TITELLABEL" font-family="ARIAL" font-size="10" fill="black" x="0" y="0" >D50 of Fractions: </text>    
    <rect
       width="30"
       height="30"
       title="F: 1,  d50=0.00068"
       x="0"
       y="55"
       class="FRA1"
       id="FRA1 Legend" />
  
   <text  class="TITELLABEL" font-family="ARIAL" font-size="10" fill="black" x="40" y="85" >0.00068 [m]</text>   
    <rect
       width="30"
       height="30"
       title="F: 2,  d50=0.0021"
       x="0"
       y="115"
       class="FRA2"
       id="FRA2 Legend" />
  
   <text  class="TITELLABEL" font-family="ARIAL" font-size="10" fill="black" x="40" y="145" >0.0021 [m]</text>   
    <rect
       width="30"
       height="30"
       title="F: 3,  d50=0.0057"
       x="0"
       y="175"
       class="FRA3"
       id="FRA3 Legend" />
  
   <text  class="TITELLABEL" font-family="ARIAL" font-size="10" fill="black" x="40" y="205" >0.0057 [m]</text>   
</g>

<g
     id="ALL_0" transform="scale(1, -1)">

<g
     id="BOXES">

<rect
         style="fill: url(#RigidBed)"
     width="120"
       height="58.47248013984"
       x="162"
       y="-6486.62422147584"
       id="rectbox1000"
       class="FRA0" />
<g transform="scale(1, -1) translate(0, 13021.2484429517)"><text  class="SINGLELABEL" font-family="ARIAL" font-size="9" fill="black" x="162" y="-6510.62422147584" >X: 0</text></g>
<g transform="scale(1, -1) translate(0, 13061.2484429517)"><text  class="SINGLELABEL" font-family="ARIAL" font-size="9" fill="black" x="162" y="-6530.62422147584" >Y: 0</text></g>
<g transform="scale(1, -1) translate(0, 13101.2484429517)"><text  class="SINGLELABEL" font-family="ARIAL" font-size="9" fill="black" x="162" y="-6550.62422147584" >#: 1</text></g>
<g transform="scale(1, -1) translate(0, 13141.2484429517)"><text  class="SINGLELABEL" font-family="ARIAL" font-size="9" fill="black" x="162" y="-6570.62422147584" >t: 10000.0000000</text></g>
<g transform="scale(1, -1) translate(0, 12981.2484429517) rotate(-90,152,-6490.62422147584)"><text  class="SINGLELABEL" font-family="ARIAL" font-size="9" fill="black" x="152" y="-6490.62422147584" >File: AVG___10010000.____.VSP.CSV</text></g>
<g class="tau" transform="scale(1, -1) translate(0, 11926.4)"><text  class="SINGLELABEL" font-family="ARIAL" font-size="9" fill="black" x="162" y="-5963.2" >tau: 0</text><use xlink:href="#ShearArrow"  x="221999999.999999" y="-5963199988" transform="scale(0.000001)"/></g>
<rect
         style="fill: url(#RigidBed)"
     width="120"
       height="58.87206304704"
       x="324"
       y="-6486.62422147584"
       id="rectbox2000"
       class="FRA0" />
<g transform="scale(1, -1) translate(0, 13021.2484429517)"><text  class="SINGLELABEL" font-family="ARIAL" font-size="9" fill="black" x="324" y="-6510.62422147584" >X: 0</text></g>
<g transform="scale(1, -1) translate(0, 13061.2484429517)"><text  class="SINGLELABEL" font-family="ARIAL" font-size="9" fill="black" x="324" y="-6530.62422147584" >Y: 0</text></g>
<g transform="scale(1, -1) translate(0, 13101.2484429517)"><text  class="SINGLELABEL" font-family="ARIAL" font-size="9" fill="black" x="324" y="-6550.62422147584" >#: 2</text></g>
<g transform="scale(1, -1) translate(0, 13141.2484429517)"><text  class="SINGLELABEL" font-family="ARIAL" font-size="9" fill="black" x="324" y="-6570.62422147584" >t: 20000.0000000</text></g>
<g transform="scale(1, -1) translate(0, 12981.2484429517) rotate(-90,314,-6490.62422147584)"><text  class="SINGLELABEL" font-family="ARIAL" font-size="9" fill="black" x="314" y="-6490.62422147584" >File: AVG___10020000.____.VSP.CSV</text></g>
<g class="tau" transform="scale(1, -1) translate(0, 11926.4)"><text  class="SINGLELABEL" font-family="ARIAL" font-size="9" fill="black" x="324" y="-5963.2" >tau: 0</text><use xlink:href="#ShearArrow"  x="383999999.999999" y="-5963199988" transform="scale(0.000001)"/></g>
<rect
         style="fill: url(#RigidBed)"
     width="120"
       height="57.6"
       x="486"
       y="-6486.62422147584"
       id="rectbox3000"
       class="FRA0" />
<g transform="scale(1, -1) translate(0, 13021.2484429517)"><text  class="SINGLELABEL" font-family="ARIAL" font-size="9" fill="black" x="486" y="-6510.62422147584" >X: 0</text></g>
<g transform="scale(1, -1) translate(0, 13061.2484429517)"><text  class="SINGLELABEL" font-family="ARIAL" font-size="9" fill="black" x="486" y="-6530.62422147584" >Y: 0</text></g>
<g transform="scale(1, -1) translate(0, 13101.2484429517)"><text  class="SINGLELABEL" font-family="ARIAL" font-size="9" fill="black" x="486" y="-6550.62422147584" >#: 3</text></g>
<g transform="scale(1, -1) translate(0, 13141.2484429517)"><text  class="SINGLELABEL" font-family="ARIAL" font-size="9" fill="black" x="486" y="-6570.62422147584" >t: 30000.0000000</text></g>
<g transform="scale(1, -1) translate(0, 12981.2484429517) rotate(-90,476,-6490.62422147584)"><text  class="SINGLELABEL" font-family="ARIAL" font-size="9" fill="black" x="476" y="-6490.62422147584" >File: AVG___10030000.____.VSP.CSV</text></g>
<g class="tau" transform="scale(1, -1) translate(0, 11926.4)"><text  class="SINGLELABEL" font-family="ARIAL" font-size="9" fill="black" x="486" y="-5963.2" >tau: 0</text><use xlink:href="#ShearArrow"  x="545999999.999999" y="-5963199988" transform="scale(0.000001)"/></g>
<rect
         style="fill: url(#RigidBed)"
     width="120"
       height="58.4308209456"
       x="648"
       y="-6486.62422147584"
       id="rectbox4000"
       class="FRA0" />
<g transform="scale(1, -1) translate(0, 13021.2484429517)"><text  class="SINGLELABEL" font-family="ARIAL" font-size="9" fill="black" x="648" y="-6510.62422147584" >X: 0</text></g>
<g transform="scale(1, -1) translate(0, 13061.2484429517)"><text  class="SINGLELABEL" font-family="ARIAL" font-size="9" fill="black" x="648" y="-6530.62422147584" >Y: 0</text></g>
<g transform="scale(1, -1) translate(0, 13101.2484429517)"><text  class="SINGLELABEL" font-family="ARIAL" font-size="9" fill="black" x="648" y="-6550.62422147584" >#: 4</text></g>
<g transform="scale(1, -1) translate(0, 13141.2484429517)"><text  class="SINGLELABEL" font-family="ARIAL" font-size="9" fill="black" x="648" y="-6570.62422147584" >t: 40000.0000000</text></g>
<g transform="scale(1, -1) translate(0, 12981.2484429517) rotate(-90,638,-6490.62422147584)"><text  class="SINGLELABEL" font-family="ARIAL" font-size="9" fill="black" x="638" y="-6490.62422147584" >File: AVG___10040000.____.VSP.CSV</text></g>
<g class="tau" transform="scale(1, -1) translate(0, 11926.4)"><text  class="SINGLELABEL" font-family="ARIAL" font-size="9" fill="black" x="648" y="-5963.2" >tau: 0</text><use xlink:href="#ShearArrow"  x="707999999.999999" y="-5963199988" transform="scale(0.000001)"/></g>
<rect
         style="fill: url(#RigidBed)"
     width="120"
       height="59.66869328352"
       x="810"
       y="-6486.62422147584"
       id="rectbox5000"
       class="FRA0" />
<g transform="scale(1, -1) translate(0, 13021.2484429517)"><text  class="SINGLELABEL" font-family="ARIAL" font-size="9" fill="black" x="810" y="-6510.62422147584" >X: 0</text></g>
<g transform="scale(1, -1) translate(0, 13061.2484429517)"><text  class="SINGLELABEL" font-family="ARIAL" font-size="9" fill="black" x="810" y="-6530.62422147584" >Y: 0</text></g>
<g transform="scale(1, -1) translate(0, 13101.2484429517)"><text  class="SINGLELABEL" font-family="ARIAL" font-size="9" fill="black" x="810" y="-6550.62422147584" >#: 5</text></g>
<g transform="scale(1, -1) translate(0, 13141.2484429517)"><text  class="SINGLELABEL" font-family="ARIAL" font-size="9" fill="black" x="810" y="-6570.62422147584" >t: 50000.0000000</text></g>
<g transform="scale(1, -1) translate(0, 12981.2484429517) rotate(-90,800,-6490.62422147584)"><text  class="SINGLELABEL" font-family="ARIAL" font-size="9" fill="black" x="800" y="-6490.62422147584" >File: AVG___10050000.____.VSP.CSV</text></g>
<g class="tau" transform="scale(1, -1) translate(0, 11926.4)"><text  class="SINGLELABEL" font-family="ARIAL" font-size="9" fill="black" x="810" y="-5963.2" >tau: 0</text><use xlink:href="#ShearArrow"  x="869999999.999999" y="-5963199988" transform="scale(0.000001)"/></g>
</g>
<g
     id="gridlines">

<g transform="scale(1, -1) translate(0, 12864)"><path
    class="Gridlines"
     d=" M0 -6432 L972 -6432 "
     id="GLin_-6" />
<use xlink:href="#GLin_-6" fill="none" stroke="red"  />
  <text 
     id="TLin_-6" dy="-15" font-family="ARIAL" class="GRIDLABELS" font-size="9" fill="black" >
    <textPath xlink:href="#GLin_-6">
-0,15 m
    </textPath>
  </text></g>

<g transform="scale(1, -1) translate(0, 12720)"><path
    class="Gridlines"
     d=" M0 -6360 L972 -6360 "
     id="GLin_-5" />
<use xlink:href="#GLin_-5" fill="none" stroke="red"  />
  <text 
     id="TLin_-5" dy="-15" font-family="ARIAL" class="GRIDLABELS" font-size="9" fill="black" >
    <textPath xlink:href="#GLin_-5">
-0,125 m
    </textPath>
  </text></g>

<g transform="scale(1, -1) translate(0, 12576)"><path
    class="Gridlines"
     d=" M0 -6288 L972 -6288 "
     id="GLin_-4" />
<use xlink:href="#GLin_-4" fill="none" stroke="red"  />
  <text 
     id="TLin_-4" dy="-15" font-family="ARIAL" class="GRIDLABELS" font-size="9" fill="black" >
    <textPath xlink:href="#GLin_-4">
-0,1 m
    </textPath>
  </text></g>

<g transform="scale(1, -1) translate(0, 12432)"><path
    class="Gridlines"
     d=" M0 -6216 L972 -6216 "
     id="GLin_-3" />
<use xlink:href="#GLin_-3" fill="none" stroke="red"  />
  <text 
     id="TLin_-3" dy="-15" font-family="ARIAL" class="GRIDLABELS" font-size="9" fill="black" >
    <textPath xlink:href="#GLin_-3">
-0,075 m
    </textPath>
  </text></g>

<g transform="scale(1, -1) translate(0, 12288)"><path
    class="Gridlines"
     d=" M0 -6144 L972 -6144 "
     id="GLin_-2" />
<use xlink:href="#GLin_-2" fill="none" stroke="red"  />
  <text 
     id="TLin_-2" dy="-15" font-family="ARIAL" class="GRIDLABELS" font-size="9" fill="black" >
    <textPath xlink:href="#GLin_-2">
-0,05 m
    </textPath>
  </text></g>

<g transform="scale(1, -1) translate(0, 12144)"><path
    class="Gridlines"
     d=" M0 -6072 L972 -6072 "
     id="GLin_-1" />
<use xlink:href="#GLin_-1" fill="none" stroke="red"  />
  <text 
     id="TLin_-1" dy="-15" font-family="ARIAL" class="GRIDLABELS" font-size="9" fill="black" >
    <textPath xlink:href="#GLin_-1">
-0,025 m
    </textPath>
  </text></g>

<g transform="scale(1, -1) translate(0, 12000)"><path
    class="Gridlines"
     d=" M0 -6000 L972 -6000 "
     id="GLin_0" />
<use xlink:href="#GLin_0" fill="none" stroke="red"  />
  <text 
     id="TLin_0" dy="-15" font-family="ARIAL" class="GRIDLABELS" font-size="9" fill="black" >
    <textPath xlink:href="#GLin_0">
0 m
    </textPath>
  </text></g>

<g transform="scale(1, -1) translate(0, 11856)"><path
    class="Gridlines"
     d=" M0 -5928 L972 -5928 "
     id="GLin_1" />
<use xlink:href="#GLin_1" fill="none" stroke="red"  />
  <text 
     id="TLin_1" dy="-15" font-family="ARIAL" class="GRIDLABELS" font-size="9" fill="black" >
    <textPath xlink:href="#GLin_1">
0,025 m
    </textPath>
  </text></g>

</g>
<g
     id="layer1">

<path
     z-index="297"
     class="FRA3"
     id="PNT_1_TIME_10000.0000000_FRA_3"
     title="P: 1;  T: 50000;  "
     marker-start="url(#MidMarker)"
     marker-mid="url(#MidMarker)"
     marker-end="url(#MidMarker)"
     d="M162 -6000 L162 -6428.151741336 L282 -6428.151741336 L282 -6413.38788818688 L282 -6398.62403503776 L282 -6383.86018188864 L282 -6369.09632873664 L282 -6354.33247558752 L282 -6339.5686224384 L282 -6324.80476928928 L282 -6310.04091614016 L282 -6295.27706299104 L282 -6280.51320984077 L282 -6265.74935669136 L282 -6250.98550354195 L282 -6236.22165039226 L282 -6221.45779724285 L282 -6206.69394409315 L282 -6191.93009094374 L282 -6177.16623779434 L282 -6162.40238464464 L282 -6147.63853149523 L282 -6132.87467834554 L282 -6118.11082519613 L282 -6103.34697204672 L282 -6088.58311889702 L282 -6073.81926574762 L282 -6059.05541259821 L282 -6044.29155944851 L282 -6029.5277062991 L282 -6014.76385314952 L282 -6000" />
<path
     z-index="298"
     class="FRA2"
     id="PNT_1_TIME_10000.0000000_FRA_2"
     title="P: 1;  T: 50000;  "
     marker-start="url(#MidMarker)"
     marker-mid="url(#MidMarker)"
     marker-end="url(#MidMarker)"
     d="M162 -6000 L162 -6428.151741336 L281.88 -6428.151741336 L282 -6413.38788818688 L282 -6398.62403503776 L281.88 -6383.86018188864 L281.88 -6369.09632873664 L281.88 -6354.33247558752 L281.88 -6339.5686224384 L281.88 -6324.80476928928 L281.88 -6310.04091614016 L281.88 -6295.27706299104 L281.88 -6280.51320984077 L281.88 -6265.74935669136 L281.88 -6250.98550354195 L281.88 -6236.22165039226 L281.88 -6221.45779724285 L281.88 -6206.69394409315 L281.88 -6191.93009094374 L281.88 -6177.16623779434 L281.88 -6162.40238464464 L281.88 -6147.63853149523 L281.88 -6132.87467834554 L281.803775072298 -6118.11082519613 L278.478360003276 -6103.34697204672 L265.66737429288 -6088.58311889702 L242.5726742034 -6073.81926574762 L240.87854603988 -6059.05541259821 L236.11975263564 -6044.29155944851 L226.86032513328 -6029.5277062991 L233.74934329824 -6014.76385314952 L281.76380191464 -6000" />
<path
     z-index="299"
     class="FRA1"
     id="PNT_1_TIME_10000.0000000_FRA_1"
     title="P: 1;  T: 50000;  "
     marker-start="url(#MidMarker)"
     marker-mid="url(#MidMarker)"
     marker-end="url(#MidMarker)"
     d="M162 -6000 L162 -6428.151741336 L281.76 -6428.151741336 L282 -6413.38788818688 L282 -6398.62403503776 L281.76 -6383.86018188864 L281.76 -6369.09632873664 L281.76 -6354.33247558752 L281.76 -6339.5686224384 L281.76 -6324.80476928928 L281.76 -6310.04091614016 L281.76 -6295.27706299104 L281.76 -6280.51320984077 L281.76 -6265.74935669136 L281.76 -6250.98550354195 L281.76 -6236.22165039226 L281.76 -6221.45779724285 L281.76 -6206.69394409315 L281.76 -6191.93009094374 L281.76 -6177.16623779434 L281.76 -6162.40238464464 L281.76 -6147.63853149523 L281.76 -6132.87467834554 L281.60979866748 -6118.11082519613 L275.05706336928 -6103.34697204672 L249.81299713176 -6088.58311889702 L204.30485654244 -6073.81926574762 L201.2138711532 -6059.05541259821 L197.03963194752 -6044.29155944851 L192.8788176126 -6029.5277062991 L191.82303957192 -6014.76385314952 L226.25424380484 -6000" />

<path
     z-index="296"
     class="D50"
     id="PNT_1_TIME_10000.0000000_D50"
     title="P: 1;  T: 50000;  "
     marker-start="url(#MidMarker)"
     marker-mid="url(#MidMarker)"
     marker-end="url(#MidMarker)"
     d="M 176.451368421053 -6428.151741336 L177.813171071137 -6413.38788818688 L176.544844284063 -6398.62403503776 L176.451368421053 -6383.86018188864 L176.451368421053 -6369.09632873664 L176.451368421053 -6354.33247558752 L176.451368421053 -6339.5686224384 L176.451368421053 -6324.80476928928 L176.451368421053 -6310.04091614016 L176.451368421053 -6295.27706299104 L176.451368421053 -6280.51320984077 L176.451368421053 -6265.74935669136 L176.451368421053 -6250.98550354195 L176.451368421053 -6236.22165039226 L176.451368421053 -6221.45779724285 L176.451368421053 -6206.69394409315 L176.451368421053 -6191.93009094374 L176.451368421053 -6177.16623779434 L176.451368421053 -6162.40238464464 L176.451368421053 -6147.63853149523 L176.451368421053 -6132.87467834554 L176.536929058274 -6118.11082519613 L180.269627018211 -6103.34697204672 L194.649648529474 -6088.58311889702 L220.572890627579 -6073.81926574762 L222.412901266526 -6059.05541259821 L226.458353183579 -6044.29155944851 L232.571758179158 -6029.5277062991 L218.920835722105 -6014.76385314952 L190.352506474526 -6000" />
</g>
<g
     id="layer2">

<path
     z-index="297"
     class="FRA3"
     id="PNT_2_TIME_20000.0000000_FRA_3"
     title="P: 2;  T: 50000;  "
     marker-start="url(#MidMarker)"
     marker-mid="url(#MidMarker)"
     marker-end="url(#MidMarker)"
     d="M324 -6000 L324 -6427.7521584288 L444 -6427.7521584288 L444 -6413.00208400032 L444 -6398.25200957184 L444 -6383.50193514336 L444 -6368.75186071488 L444 -6354.0017862864 L444 -6339.25171185792 L444 -6324.50163742944 L444 -6309.75156300096 L444 -6295.0014885696 L444 -6280.25141414256 L444 -6265.50133971379 L444 -6250.75126528531 L444 -6236.00119085683 L444 -6221.25111642835 L444 -6206.50104199958 L444 -6191.7509675711 L444 -6177.00089314262 L444 -6162.25081871414 L444 -6147.50074428538 L444 -6132.7506698569 L444 -6118.00059542842 L444 -6103.25052099994 L444 -6088.50044657117 L444 -6073.75037214269 L444 -6059.00029771421 L444 -6044.25022328573 L444 -6029.50014885696 L444 -6014.75007442854 L444 -6000" />
<path
     z-index="298"
     class="FRA2"
     id="PNT_2_TIME_20000.0000000_FRA_2"
     title="P: 2;  T: 50000;  "
     marker-start="url(#MidMarker)"
     marker-mid="url(#MidMarker)"
     marker-end="url(#MidMarker)"
     d="M324 -6000 L324 -6427.7521584288 L443.88 -6427.7521584288 L444 -6413.00208400032 L444 -6398.25200957184 L444 -6383.50193514336 L443.88 -6368.75186071488 L443.88 -6354.0017862864 L443.88 -6339.25171185792 L443.88 -6324.50163742944 L443.88 -6309.75156300096 L443.88 -6295.0014885696 L443.88 -6280.25141414256 L443.88 -6265.50133971379 L443.88 -6250.75126528531 L443.88 -6236.00119085683 L443.88 -6221.25111642835 L443.88 -6206.50104199958 L443.88 -6191.7509675711 L443.88 -6177.00089314262 L443.88 -6162.25081871414 L443.88 -6147.50074428538 L443.705084997566 -6132.7506698569 L441.55361494104 -6118.00059542842 L431.37745805412 -6103.25052099994 L420.16294903812 -6088.50044657117 L403.53186744996 -6073.75037214269 L398.69455545528 -6059.00029771421 L391.74017816436 -6044.25022328573 L392.24179013196 -6029.50014885696 L391.217182149 -6014.75007442854 L443.78490975912 -6000" />
<path
     z-index="299"
     class="FRA1"
     id="PNT_2_TIME_20000.0000000_FRA_1"
     title="P: 2;  T: 50000;  "
     marker-start="url(#MidMarker)"
     marker-mid="url(#MidMarker)"
     marker-end="url(#MidMarker)"
     d="M324 -6000 L324 -6427.7521584288 L443.76 -6427.7521584288 L444 -6413.00208400032 L444 -6398.25200957184 L444 -6383.50193514336 L443.76 -6368.75186071488 L443.76 -6354.0017862864 L443.76 -6339.25171185792 L443.76 -6324.50163742944 L443.76 -6309.75156300096 L443.76 -6295.0014885696 L443.76 -6280.25141414256 L443.76 -6265.50133971379 L443.76 -6250.75126528531 L443.76 -6236.00119085683 L443.76 -6221.25111642835 L443.76 -6206.50104199958 L443.76 -6191.7509675711 L443.76 -6177.00089314262 L443.76 -6162.25081871414 L443.76 -6147.50074428538 L443.41532972976 -6132.7506698569 L439.17585481008 -6118.00059542842 L419.12372265528 -6103.25052099994 L397.0255155978 -6088.50044657117 L364.87807074744 -6073.75037214269 L358.55050377084 -6059.00029771421 L354.7293870606 -6044.25022328573 L363.6413081232 -6029.50014885696 L361.81425993132 -6014.75007442854 L403.39490920032 -6000" />

<path
     z-index="296"
     class="D50"
     id="PNT_2_TIME_20000.0000000_D50"
     title="P: 2;  T: 50000;  "
     marker-start="url(#MidMarker)"
     marker-mid="url(#MidMarker)"
     marker-end="url(#MidMarker)"
     d="M 338.451368421053 -6427.7521584288 L342.959805449537 -6413.00208400032 L340.153972171811 -6398.25200957184 L338.677760615642 -6383.50193514336 L338.451368421053 -6368.75186071488 L338.451368421053 -6354.0017862864 L338.451368421053 -6339.25171185792 L338.451368421053 -6324.50163742944 L338.451368421053 -6309.75156300096 L338.451368421053 -6295.0014885696 L338.451368421053 -6280.25141414256 L338.451368421053 -6265.50133971379 L338.451368421053 -6250.75126528531 L338.451368421053 -6236.00119085683 L338.451368421053 -6221.25111642835 L338.451368421053 -6206.50104199958 L338.451368421053 -6191.7509675711 L338.451368421053 -6177.00089314262 L338.451368421053 -6162.25081871414 L338.451368421053 -6147.50074428538 L338.647706279347 -6132.7506698569 L341.062679365242 -6118.00059542842 L352.485169269263 -6103.25052099994 L365.073184441053 -6088.50044657117 L383.585687143579 -6073.75037214269 L388.217172808211 -6059.00029771421 L391.710438674947 -6044.25022328573 L378.376553158316 -6029.50014885696 L363.591943903789 -6014.75007442854 L348.567290140842 -6000" />
</g>
<g
     id="layer3">

<path
     z-index="297"
     class="FRA3"
     id="PNT_3_TIME_30000.0000000_FRA_3"
     title="P: 3;  T: 50000;  "
     marker-start="url(#MidMarker)"
     marker-mid="url(#MidMarker)"
     marker-end="url(#MidMarker)"
     d="M486 -6000 L486 -6429.02422147584 L606 -6429.02422147584 L606 -6414.23028280416 L606 -6399.43634413248 L606 -6384.6424054608 L606 -6369.84846678912 L606 -6355.05452811744 L606 -6340.26058944576 L606 -6325.46665077408 L606 -6310.6727121024 L606 -6295.8787734336 L606 -6281.08483476048 L606 -6266.29089608909 L606 -6251.49695741741 L606 -6236.70301874573 L606 -6221.90908007405 L606 -6207.11514140266 L606 -6192.32120273098 L606 -6177.5272640593 L606 -6162.73332538762 L606 -6147.93938671622 L606 -6133.14544804454 L606 -6118.35150937286 L606 -6103.55757070118 L606 -6088.76363202979 L606 -6073.96969335811 L606 -6059.17575468643 L606 -6044.38181601475 L606 -6029.58787734336 L606 -6014.79393867162 L606 -6000" />
<path
     z-index="298"
     class="FRA2"
     id="PNT_3_TIME_30000.0000000_FRA_2"
     title="P: 3;  T: 50000;  "
     marker-start="url(#MidMarker)"
     marker-mid="url(#MidMarker)"
     marker-end="url(#MidMarker)"
     d="M486 -6000 L486 -6429.02422147584 L605.88 -6429.02422147584 L606 -6414.23028280416 L606 -6399.43634413248 L605.88 -6384.6424054608 L605.88 -6369.84846678912 L605.88 -6355.05452811744 L605.88 -6340.26058944576 L605.88 -6325.46665077408 L605.88 -6310.6727121024 L605.88 -6295.8787734336 L605.88 -6281.08483476048 L605.88 -6266.29089608909 L605.88 -6251.49695741741 L605.88 -6236.70301874573 L605.88 -6221.90908007405 L605.88 -6207.11514140266 L605.88 -6192.32120273098 L605.88 -6177.5272640593 L605.88 -6162.73332538762 L605.88 -6147.93938671622 L605.88 -6133.14544804454 L605.720847803148 -6118.35150937286 L595.963967967672 -6103.55757070118 L576.70174254444 -6088.76363202979 L565.88404146036 -6073.96969335811 L563.7494828136 -6059.17575468643 L546.48689628372 -6044.38181601475 L559.05633810768 -6029.58787734336 L562.92057808752 -6014.79393867162 L605.97123050424 -6000" />
<path
     z-index="299"
     class="FRA1"
     id="PNT_3_TIME_30000.0000000_FRA_1"
     title="P: 3;  T: 50000;  "
     marker-start="url(#MidMarker)"
     marker-mid="url(#MidMarker)"
     marker-end="url(#MidMarker)"
     d="M486 -6000 L486 -6429.02422147584 L605.76 -6429.02422147584 L606 -6414.23028280416 L606 -6399.43634413248 L605.76 -6384.6424054608 L605.76 -6369.84846678912 L605.76 -6355.05452811744 L605.76 -6340.26058944576 L605.76 -6325.46665077408 L605.76 -6310.6727121024 L605.76 -6295.8787734336 L605.76 -6281.08483476048 L605.76 -6266.29089608909 L605.76 -6251.49695741741 L605.76 -6236.70301874573 L605.76 -6221.90908007405 L605.76 -6207.11514140266 L605.76 -6192.32120273098 L605.76 -6177.5272640593 L605.76 -6162.73332538762 L605.76 -6147.93938671622 L605.76 -6133.14544804454 L605.4463903614 -6118.35150937286 L586.22044425492 -6103.55757070118 L548.26420064796 -6088.76363202979 L526.94790470664 -6073.96969335811 L523.24328945136 -6059.17575468643 L507.35109766848 -6044.38181601475 L526.26558724764 -6029.58787734336 L545.69129737212 -6014.79393867162 L586.45057610268 -6000" />

<path
     z-index="296"
     class="D50"
     id="PNT_3_TIME_30000.0000000_D50"
     title="P: 3;  T: 50000;  "
     marker-start="url(#MidMarker)"
     marker-mid="url(#MidMarker)"
     marker-end="url(#MidMarker)"
     d="M 500.451368421053 -6429.02422147584 L505.1862877672 -6414.23028280416 L500.813128631853 -6399.43634413248 L500.451368421053 -6384.6424054608 L500.451368421053 -6369.84846678912 L500.451368421053 -6355.05452811744 L500.451368421053 -6340.26058944576 L500.451368421053 -6325.46665077408 L500.451368421053 -6310.6727121024 L500.451368421053 -6295.8787734336 L500.451368421053 -6281.08483476048 L500.451368421053 -6266.29089608909 L500.451368421053 -6251.49695741741 L500.451368421053 -6236.70301874573 L500.451368421053 -6221.90908007405 L500.451368421053 -6207.11514140266 L500.451368421053 -6192.32120273098 L500.451368421053 -6177.5272640593 L500.451368421053 -6162.73332538762 L500.451368421053 -6147.93938671622 L500.451368421053 -6133.14544804454 L500.630012911453 -6118.35150937286 L511.581874469053 -6103.55757070118 L533.203256477263 -6088.76363202979 L545.345864220842 -6073.96969335811 L547.616910675368 -6059.17575468643 L562.478704331368 -6044.38181601475 L546.897487498316 -6029.58787734336 L512.933722817895 -6014.79393867162 L505.204167038358 -6000" />
</g>
<g
     id="layer4">

<path
     z-index="297"
     class="FRA3"
     id="PNT_4_TIME_40000.0000000_FRA_3"
     title="P: 4;  T: 50000;  "
     marker-start="url(#MidMarker)"
     marker-mid="url(#MidMarker)"
     marker-end="url(#MidMarker)"
     d="M648 -6000 L648 -6428.19340053024 L768 -6428.19340053024 L768 -6413.42811085728 L768 -6398.66282118432 L768 -6383.89753151136 L768 -6369.13224183552 L768 -6354.36695216256 L768 -6339.6016624896 L768 -6324.83637281664 L768 -6310.07108314368 L768 -6295.30579346784 L768 -6280.54050379574 L768 -6265.77521412221 L768 -6251.00992444896 L768 -6236.24463477542 L768 -6221.47934510189 L768 -6206.71405542835 L768 -6191.9487657551 L768 -6177.18347608157 L768 -6162.41818640803 L768 -6147.6528967345 L768 -6132.88760706125 L768 -6118.12231738771 L768 -6103.35702771418 L768 -6088.59173804064 L768 -6073.82644836739 L768 -6059.06115869386 L768 -6044.29586902032 L768 -6029.53057934678 L768 -6014.76528967345 L768 -6000" />
<path
     z-index="298"
     class="FRA2"
     id="PNT_4_TIME_40000.0000000_FRA_2"
     title="P: 4;  T: 50000;  "
     marker-start="url(#MidMarker)"
     marker-mid="url(#MidMarker)"
     marker-end="url(#MidMarker)"
     d="M648 -6000 L648 -6428.19340053024 L767.88 -6428.19340053024 L768 -6413.42811085728 L768 -6398.66282118432 L768 -6383.89753151136 L767.88 -6369.13224183552 L767.88 -6354.36695216256 L767.88 -6339.6016624896 L767.88 -6324.83637281664 L767.88 -6310.07108314368 L767.88 -6295.30579346784 L767.88 -6280.54050379574 L767.88 -6265.77521412221 L767.88 -6251.00992444896 L767.88 -6236.24463477542 L767.88 -6221.47934510189 L767.88 -6206.71405542835 L767.88 -6191.9487657551 L767.88 -6177.18347608157 L767.88 -6162.41818640803 L767.88 -6147.6528967345 L767.870772309397 -6132.88760706125 L766.205707590228 -6118.12231738771 L746.39866386264 -6103.35702771418 L730.94827834212 -6088.59173804064 L727.26567479604 -6073.82644836739 L720.37799485812 -6059.06115869386 L702.12852719616 -6044.29586902032 L728.30399119248 -6029.53057934678 L721.547027408592 -6014.76528967345 L767.97346172256 -6000" />
<path
     z-index="299"
     class="FRA1"
     id="PNT_4_TIME_40000.0000000_FRA_1"
     title="P: 4;  T: 50000;  "
     marker-start="url(#MidMarker)"
     marker-mid="url(#MidMarker)"
     marker-end="url(#MidMarker)"
     d="M648 -6000 L648 -6428.19340053024 L767.76 -6428.19340053024 L768 -6413.42811085728 L768 -6398.66282118432 L768 -6383.89753151136 L767.76 -6369.13224183552 L767.76 -6354.36695216256 L767.76 -6339.6016624896 L767.76 -6324.83637281664 L767.76 -6310.07108314368 L767.76 -6295.30579346784 L767.76 -6280.54050379574 L767.76 -6265.77521412221 L767.76 -6251.00992444896 L767.76 -6236.24463477542 L767.76 -6221.47934510189 L767.76 -6206.71405542835 L767.76 -6191.9487657551 L767.76 -6177.18347608157 L767.76 -6162.41818640803 L767.76 -6147.6528967345 L767.74181682204 -6132.88760706125 L764.46080433708 -6118.12231738771 L725.43099545796 -6103.35702771418 L694.98598800144 -6088.59173804064 L687.77800642032 -6073.82644836739 L679.28868303132 -6059.06115869386 L666.15807716244 -6044.29586902032 L706.71508238808 -6029.53057934678 L714.28210507236 -6014.76528967345 L759.59370441276 -6000" />

<path
     z-index="296"
     class="D50"
     id="PNT_4_TIME_40000.0000000_D50"
     title="P: 4;  T: 50000;  "
     marker-start="url(#MidMarker)"
     marker-mid="url(#MidMarker)"
     marker-end="url(#MidMarker)"
     d="M 662.451368421053 -6428.19340053024 L670.396742293895 -6413.42811085728 L665.165136842105 -6398.66282118432 L662.488614215958 -6383.89753151136 L662.451368421053 -6369.13224183552 L662.451368421053 -6354.36695216256 L662.451368421053 -6339.6016624896 L662.451368421053 -6324.83637281664 L662.451368421053 -6310.07108314368 L662.451368421053 -6295.30579346784 L662.451368421053 -6280.54050379574 L662.451368421053 -6265.77521412221 L662.451368421053 -6251.00992444896 L662.451368421053 -6236.24463477542 L662.451368421053 -6221.47934510189 L662.451368421053 -6206.71405542835 L662.451368421053 -6191.9487657551 L662.451368421053 -6177.18347608157 L662.451368421053 -6162.41818640803 L662.451368421053 -6147.6528967345 L662.461726280526 -6132.88760706125 L664.330721143263 -6118.12231738771 L686.563648516421 -6103.35702771418 L703.906332457263 -6088.59173804064 L708.027859932842 -6073.82644836739 L714.492857650105 -6059.06115869386 L728.981487327579 -6044.29586902032 L683.682701269263 -6029.53057934678 L662.466167689074 -6014.76528967345 L664.426750444274 -6000" />
</g>
<g
     id="layer5">

<path
     z-index="297"
     class="FRA3"
     id="PNT_5_TIME_50000.0000000_FRA_3"
     title="P: 5;  T: 50000;  "
     marker-start="url(#MidMarker)"
     marker-mid="url(#MidMarker)"
     marker-end="url(#MidMarker)"
     d="M810 -6000 L810 -6426.95552819232 L930 -6426.95552819232 L930 -6412.2329237712 L930 -6397.51031935008 L930 -6382.78771492896 L930 -6368.06511051072 L930 -6353.3425060896 L930 -6338.61990166848 L930 -6323.89729724736 L930 -6309.17469282912 L930 -6294.452088408 L930 -6279.72948398746 L930 -6265.0068795672 L930 -6250.28427514666 L930 -6235.5616707264 L930 -6220.83906630586 L930 -6206.1164618856 L930 -6191.39385746506 L930 -6176.6712530448 L930 -6161.94864862426 L930 -6147.226044204 L930 -6132.50343978346 L930 -6117.7808353632 L930 -6103.05823094266 L930 -6088.3356265224 L930 -6073.61302210186 L930 -6058.8904176816 L930 -6044.16781326106 L930 -6029.4452088408 L930 -6014.7226044204 L930 -6000" />
<path
     z-index="298"
     class="FRA2"
     id="PNT_5_TIME_50000.0000000_FRA_2"
     title="P: 5;  T: 50000;  "
     marker-start="url(#MidMarker)"
     marker-mid="url(#MidMarker)"
     marker-end="url(#MidMarker)"
     d="M810 -6000 L810 -6426.95552819232 L929.88 -6426.95552819232 L930 -6412.2329237712 L930 -6397.51031935008 L930 -6382.78771492896 L930 -6368.06511051072 L930 -6353.3425060896 L930 -6338.61990166848 L930 -6323.89729724736 L929.88 -6309.17469282912 L929.88 -6294.452088408 L929.88 -6279.72948398746 L929.88 -6265.0068795672 L929.88 -6250.28427514666 L929.88 -6235.5616707264 L929.88 -6220.83906630586 L929.88 -6206.1164618856 L929.49444911073 -6191.39385746506 L928.131666675624 -6176.6712530448 L924.385550511048 -6161.94864862426 L918.53709038664 -6147.226044204 L910.28236669236 -6132.50343978346 L904.99020242532 -6117.7808353632 L896.11102714536 -6103.05823094266 L888.14621136228 -6088.3356265224 L894.34830005724 -6073.61302210186 L900.10278794496 -6058.8904176816 L890.99069561064 -6044.16781326106 L894.6413872584 -6029.4452088408 L892.13161919916 -6014.7226044204 L929.99999984316 -6000" />
<path
     z-index="299"
     class="FRA1"
     id="PNT_5_TIME_50000.0000000_FRA_1"
     title="P: 5;  T: 50000;  "
     marker-start="url(#MidMarker)"
     marker-mid="url(#MidMarker)"
     marker-end="url(#MidMarker)"
     d="M810 -6000 L810 -6426.95552819232 L929.76 -6426.95552819232 L930 -6412.2329237712 L930 -6397.51031935008 L930 -6382.78771492896 L930 -6368.06511051072 L930 -6353.3425060896 L930 -6338.61990166848 L930 -6323.89729724736 L929.76 -6309.17469282912 L929.76 -6294.452088408 L929.76 -6279.72948398746 L929.76 -6265.0068795672 L929.76 -6250.28427514666 L929.76 -6235.5616707264 L929.76 -6220.83906630586 L929.76 -6206.1164618856 L929.00027140404 -6191.39385746506 L926.31490660572 -6176.6712530448 L918.93317917812 -6161.94864862426 L907.40877546576 -6147.226044204 L892.05325804236 -6132.50343978346 L882.14631247824 -6117.7808353632 L866.59970994312 -6103.05823094266 L852.28009896588 -6088.3356265224 L857.46910169196 -6073.61302210186 L865.81990909356 -6058.8904176816 L863.51824355148 -6044.16781326106 L879.43612999572 -6029.4452088408 L878.1346478118 -6014.7226044204 L899.56587009372 -6000" />

<path
     z-index="296"
     class="D50"
     id="PNT_5_TIME_50000.0000000_D50"
     title="P: 5;  T: 50000;  "
     marker-start="url(#MidMarker)"
     marker-mid="url(#MidMarker)"
     marker-end="url(#MidMarker)"
     d="M 824.451368421053 -6426.95552819232 L830.591876614611 -6412.2329237712 L827.567444736842 -6397.51031935008 L826.130795741137 -6382.78771492896 L825.010900709726 -6368.06511051072 L824.696947230821 -6353.3425060896 L824.639537280695 -6338.61990166848 L824.526052495579 -6323.89729724736 L824.451368421053 -6309.17469282912 L824.451368421053 -6294.452088408 L824.451368421053 -6279.72948398746 L824.451368421053 -6265.0068795672 L824.451368421053 -6250.28427514666 L824.451368421053 -6235.5616707264 L824.451368421053 -6220.83906630586 L824.451368421053 -6206.1164618856 L824.884139966253 -6191.39385746506 L826.413830278484 -6176.6712530448 L830.618755039874 -6161.94864862426 L837.183511130947 -6147.226044204 L846.222430436421 -6132.50343978346 L852.032896061474 -6117.7808353632 L860.896842920421 -6103.05823094266 L868.569144699158 -6088.3356265224 L862.896612189263 -6073.61302210186 L854.713955879158 -6058.8904176816 L853.021793394737 -6044.16781326106 L837.958811074947 -6029.4452088408 L825.369441985789 -6014.7226044204 L831.897625444211 -6000" />
</g>
<g
     id="layerlines">

<path
     class="Layerlines"
     d="M162 -6000 L282 -6000 "
     id="pathLLin_31-1" />
<path
     class="Layerlines"
     d="M324 -6000 L444 -6000 "
     id="pathLLin_31-1" />
<path
     class="Layerlines"
     d="M486 -6000 L606 -6000 "
     id="pathLLin_31-1" />
<path
     class="Layerlines"
     d="M648 -6000 L768 -6000 "
     id="pathLLin_31-1" />
<path
     class="Layerlines"
     d="M810 -6000 L930 -6000 "
     id="pathLLin_31-1" />
</g>
<g
     id="TITELS">

</g>
</g>
</defs>
<g id="DiagBody">        <use x="0" y="0" xlink:href = "#ALL_0"/></g>   
<g id="internalLegend">        <use x="1134" y="6002.4" xlink:href = "#GRAINLEGEND"/></g>   
<g id="externalLegend">        <use x="1322" y="6302.4" xlink:href = "drilllegend.svg#LEGEND"/></g>   
</svg></svg>
